<svg xmlns="http://www.w3.org/2000/svg" viewBox="0 0 100 100" fill="none">
  <circle cx="50" cy="50" r="45" fill="#c9255b" />
  <circle cx="50" cy="50" r="35" fill="#e04874" />
  <rect x="35" y="25" width="6" height="10" rx="2" fill="#fff" />
  <rect x="45" y="25" width="6" height="10" rx="2" fill="#fff" />
  <rect x="55" y="25" width="6" height="10" rx="2" fill="#fff" />
  <rect x="35" y="65" width="6" height="10" rx="2" fill="#fff" />
  <rect x="45" y="65" width="6" height="10" rx="2" fill="#fff" />
  <rect x="55" y="65" width="6" height="10" rx="2" fill="#fff" />
  <rect x="25" y="40" width="10" height="6" rx="2" fill="#fff" />
  <rect x="25" y="50" width="10" height="6" rx="2" fill="#fff" />
  <rect x="65" y="40" width="10" height="6" rx="2" fill="#fff" />
  <rect x="65" y="50" width="10" height="6" rx="2" fill="#fff" />
  <circle cx="50" cy="50" r="12" fill="#fff" />
  <circle cx="50" cy="50" r="8" fill="#c9255b" />
</svg>


